<svg width="11" height="11" viewBox="0 0 11 11" fill="none" xmlns="http://www.w3.org/2000/svg">
<path d="M6.875 0C6.49473 0 6.1875 0.307227 6.1875 0.6875C6.1875 1.06777 6.49473 1.375 6.875 1.375H8.65176L4.3248 5.70195C4.05625 5.97051 4.05625 6.40664 4.3248 6.6752C4.59336 6.94375 5.02949 6.94375 5.29805 6.6752L9.625 2.34824V4.125C9.625 4.50527 9.93223 4.8125 10.3125 4.8125C10.6928 4.8125 11 4.50527 11 4.125V0.6875C11 0.307227 10.6928 0 10.3125 0H6.875ZM1.71875 2.0625C0.769141 2.0625 0 2.83164 0 3.78125V9.28125C0 10.2309 0.769141 11 1.71875 11H7.21875C8.16836 11 8.9375 10.2309 8.9375 9.28125V7.5625C8.9375 7.18223 8.63027 6.875 8.25 6.875C7.86973 6.875 7.5625 7.18223 7.5625 7.5625V9.28125C7.5625 9.47031 7.40781 9.625 7.21875 9.625H1.71875C1.52969 9.625 1.375 9.47031 1.375 9.28125V3.78125C1.375 3.59219 1.52969 3.4375 1.71875 3.4375H3.4375C3.81777 3.4375 4.125 3.13027 4.125 2.75C4.125 2.36973 3.81777 2.0625 3.4375 2.0625H1.71875Z" fill="#A3A3A3"/>
</svg>
