<svg width="256" height="256" viewBox="0 0 256 256" fill="none" xmlns="http://www.w3.org/2000/svg">
<rect width="256" height="256" rx="20" fill="white"/>
<path d="M81.7286 104.822C81.7286 100.306 78.1061 96.6499 73.6426 96.6499C69.1791 96.6499 65.5566 100.312 65.5566 104.822V165.946C65.5566 169.748 65.5566 173.543 65.5566 177.345C67.1486 177.321 70.8432 177.484 74.6639 179.809C79.3917 182.692 81.2601 187.022 81.8067 188.446C81.7827 180.954 81.7526 173.462 81.7286 165.97V104.822Z" fill="#1D1D1B"/>
<path d="M202.316 90.5331C199.421 85.6274 195.996 81.2157 192.043 77.2981C185.08 70.3871 178.303 66.76 175.101 65.0803C159.259 56.7626 143.206 55.9081 134.933 56.007C104.306 56.007 73.6724 56.007 43.0449 56.007C43.0449 61.9705 43.0449 67.94 43.0449 73.9036C64.5707 73.9152 86.0904 73.9268 107.616 73.9384H113.269H127.207H127.838H133.708C145.254 73.9384 155.42 76.2053 164.191 80.7449C172.962 85.2786 179.721 91.6317 184.473 99.8098C189.231 107.988 191.61 117.433 191.61 128.151C191.61 138.875 189.231 148.315 184.473 156.499C179.721 164.672 172.956 171.024 164.191 175.564C155.42 180.098 145.261 182.37 133.708 182.37H127.838H127.207H116.484C111.587 182.37 107.616 178.354 107.616 173.402C107.592 147.786 107.562 122.171 107.538 96.5548H98.7489H96.0873C91.191 96.5548 87.2199 100.571 87.2199 105.524V191.333C87.2199 196.285 91.191 200.302 96.0873 200.302H127.201H127.832H134.928C150.013 200.302 163.398 197.274 175.095 191.229C186.786 185.183 195.858 176.703 202.316 165.776C208.775 154.854 212.001 142.311 212.001 128.158C212.001 113.992 208.769 101.455 202.316 90.5331Z" fill="#1D1D1B"/>
<path d="M179.184 103.263C174.798 95.8342 168.622 90.0682 160.68 85.9588C152.737 81.8494 143.642 79.7975 133.393 79.7975H127.823V79.7918C103.69 79.7627 79.5632 79.7336 55.43 79.7046V79.6987H43V90.8006H43.0421C43.2583 117.828 43.4686 144.857 43.6849 171.884C43.7089 175.233 46.4004 177.93 49.7107 177.93H51.4349H53.1411H59.1788V169.897C59.3231 145.908 59.4672 121.921 59.6114 97.9325C59.6294 94.5787 62.3329 91.8701 65.6492 91.8759C83.4802 91.9108 101.311 91.9515 119.142 91.9863V91.9921H127.199H127.829H132.563C140.416 91.9921 147.318 93.5325 153.272 96.6131C159.232 99.6937 163.828 104.012 167.06 109.569C170.292 115.126 171.909 121.543 171.909 128.831C171.909 136.115 170.292 142.532 167.06 148.089C163.828 153.645 159.232 157.964 153.272 161.045C147.318 164.125 140.41 165.671 132.563 165.671H127.829H125.631V165.572H113.2V172.083H113.266C113.435 175.291 116.042 177.854 119.262 177.854H127.836H133.405C143.654 177.854 152.75 175.802 160.692 171.693C168.634 167.589 174.804 161.818 179.196 154.395C183.575 146.972 185.774 138.445 185.774 128.831C185.762 119.206 183.563 110.691 179.184 103.263Z" fill="#1D1D1B"/>
</svg>
