<svg width="31" height="26" viewBox="0 0 31 26" fill="none" xmlns="http://www.w3.org/2000/svg">
<path d="M6.97829 8.7967C6.97829 7.98296 6.32559 7.32422 5.52137 7.32422C4.71714 7.32422 4.06445 7.98401 4.06445 8.7967V19.8099C4.06445 20.4948 4.06445 21.1787 4.06445 21.8636C4.35129 21.8594 5.01697 21.8888 5.70537 22.3077C6.55723 22.8271 6.89386 23.6073 6.99236 23.8639C6.98803 22.514 6.98261 21.164 6.97829 19.8141V8.7967Z" fill="#1D1D1B"/>
<path d="M28.705 6.2221C28.1833 5.3382 27.5662 4.54331 26.854 3.83744C25.5994 2.59223 24.3784 1.93872 23.8014 1.63606C20.9469 0.1374 18.0546 -0.0165506 16.564 0.00125322C11.0457 0.00125322 5.52621 0.00125322 0.0078125 0.00125322C0.0078125 1.07576 0.0078125 2.15132 0.0078125 3.22583C3.88628 3.22793 7.76366 3.23002 11.6422 3.23211H12.6607H15.172H15.2857H16.3433C18.4237 3.23211 20.2552 3.64055 21.8357 4.45848C23.4161 5.27536 24.6339 6.42004 25.4901 7.89356C26.3474 9.36709 26.776 11.0689 26.776 13.0001C26.776 14.9323 26.3474 16.6331 25.4901 18.1077C24.6339 19.5802 23.415 20.7248 21.8357 21.5428C20.2552 22.3597 18.4248 22.7691 16.3433 22.7691H15.2857H15.172H13.2399C12.3576 22.7691 11.6422 22.0455 11.6422 21.1532C11.6378 16.5378 11.6324 11.9225 11.628 7.30708H10.0444H9.56488C8.68267 7.30708 7.96716 8.03075 7.96716 8.92304V24.384C7.96716 25.2763 8.68267 26 9.56488 26H15.1709H15.2846H16.563C19.281 26 21.6928 25.4544 23.8004 24.3652C25.9068 23.276 27.5413 21.748 28.705 19.7792C29.8687 17.8113 30.4499 15.5513 30.4499 13.0012C30.4499 10.4489 29.8676 8.18994 28.705 6.2221Z" fill="#1D1D1B"/>
<path d="M24.5373 8.5157C23.7471 7.17727 22.6343 6.13837 21.2033 5.39794C19.7723 4.65752 18.1334 4.28782 16.2867 4.28782H15.2833V4.28678C10.935 4.28154 6.58787 4.2763 2.23962 4.27107V4.27002H0V6.27033H0.00757804C0.0465467 11.1402 0.084432 16.01 0.123401 20.8798C0.127731 21.4831 0.612676 21.9691 1.20911 21.9691H1.51978H1.8272H2.91507V20.5218C2.94106 16.1996 2.96703 11.8774 2.99301 7.55534C2.99626 6.95106 3.48337 6.46303 4.08089 6.46407C7.29363 6.47036 10.5063 6.47769 13.7192 6.48397V6.48502H15.1708H15.2844H16.1373C17.5521 6.48502 18.7959 6.76255 19.8686 7.31761C20.9424 7.87267 21.7705 8.6508 22.3528 9.652C22.9352 10.6531 23.2265 11.8094 23.2265 13.1227C23.2265 14.435 22.9352 15.5911 22.3528 16.5923C21.7705 17.5935 20.9424 18.3716 19.8686 18.9267C18.7959 19.4817 17.551 19.7604 16.1373 19.7604H15.2844H14.8882V19.7425H12.6485V20.9156H12.6605C12.6908 21.4937 13.1606 21.9554 13.7408 21.9554H15.2855H16.2889C18.1356 21.9554 19.7744 21.5857 21.2055 20.8453C22.6365 20.1059 23.7482 19.0661 24.5395 17.7287C25.3286 16.3913 25.7247 14.8549 25.7247 13.1227C25.7225 11.3884 25.3264 9.85412 24.5373 8.5157Z" fill="#1D1D1B"/>
</svg>
