<svg width="11" height="12" viewBox="0 0 11 12" fill="none" xmlns="http://www.w3.org/2000/svg">
<path d="M8.25 8.43117C9.21004 7.67428 9.82143 6.53076 9.82143 5.24897C9.82143 2.97129 7.88661 1.12478 5.5 1.12478C3.11339 1.12478 1.17857 2.97129 1.17857 5.24897C1.17857 6.53076 1.78996 7.67428 2.75 8.43117C2.75982 8.84359 2.82857 9.37786 2.90714 9.87932C1.17857 8.9959 0 7.25249 0 5.24897C0 2.35032 2.46272 0 5.5 0C8.53728 0 11 2.35032 11 5.24897C11 7.25483 9.82143 8.9959 8.0904 9.87932C8.17143 9.37786 8.23772 8.84359 8.24754 8.43117H8.25ZM7.90625 7.17985C7.70246 6.88459 7.43482 6.6737 7.15982 6.52841C7.10826 6.50264 7.0567 6.47686 7.00513 6.45343C7.29241 6.12771 7.46674 5.70592 7.46674 5.24663C7.46674 4.2109 6.58772 3.372 5.50246 3.372C4.41719 3.372 3.53817 4.2109 3.53817 5.24663C3.53817 5.70592 3.7125 6.12771 3.99978 6.45343C3.94821 6.47686 3.89665 6.50029 3.84509 6.52841C3.57009 6.6737 3.30246 6.88459 3.09866 7.17985C2.63705 6.65729 2.3596 5.98477 2.3596 5.24897C2.3596 3.59227 3.76652 2.24956 5.50246 2.24956C7.23839 2.24956 8.64531 3.59227 8.64531 5.24897C8.64531 5.98477 8.36786 6.65964 7.90625 7.17985ZM5.5 7.31107C6.30781 7.31107 7.07143 7.5126 7.07143 8.33743C7.07143 9.11072 6.75469 10.7768 6.56562 11.4517C6.4404 11.8969 5.96406 12 5.5 12C5.03594 12 4.56205 11.8969 4.43438 11.4517C4.24286 10.7838 3.92857 9.11541 3.92857 8.33978C3.92857 7.51728 4.69219 7.31342 5.5 7.31342V7.31107ZM5.5 4.31166C5.76048 4.31166 6.01029 4.41041 6.19448 4.58619C6.37867 4.76197 6.48214 5.00038 6.48214 5.24897C6.48214 5.49757 6.37867 5.73598 6.19448 5.91176C6.01029 6.08754 5.76048 6.18629 5.5 6.18629C5.23952 6.18629 4.98971 6.08754 4.80552 5.91176C4.62133 5.73598 4.51786 5.49757 4.51786 5.24897C4.51786 5.00038 4.62133 4.76197 4.80552 4.58619C4.98971 4.41041 5.23952 4.31166 5.5 4.31166Z" fill="white" fill-opacity="0.47"/>
</svg>
