<svg width="31" height="24" viewBox="0 0 31 24" fill="none" xmlns="http://www.w3.org/2000/svg">
<path d="M14.8982 2.43079C15.32 0.991297 16.6379 0 18.1351 0H28.6788C29.6119 0 30.3658 0.754018 30.3658 1.68731C30.3658 2.62061 29.6119 3.37463 28.6788 3.37463H18.1351L12.5839 22.4096C12.3941 23.0582 11.8405 23.5275 11.171 23.6118C10.5015 23.6962 9.84779 23.3693 9.51039 22.7893L4.09094 13.4985H1.68699C0.753873 13.4985 0 12.7445 0 11.8112C0 10.8779 0.753873 10.1239 1.68699 10.1239H4.09094C5.29292 10.1239 6.40001 10.7619 7.00627 11.8007L10.4435 17.6957L14.8929 2.43079H14.8982ZM20.7394 10.6195C21.3984 9.96042 22.4686 9.96042 23.1275 10.6195L25.3101 12.8025L27.4926 10.6195C28.1516 9.96042 29.2218 9.96042 29.8808 10.6195C30.5397 11.2786 30.5397 12.349 29.8808 13.0081L27.6982 15.1911L29.8808 17.3741C30.5397 18.0332 30.5397 19.1036 29.8808 19.7627C29.2218 20.4218 28.1516 20.4218 27.4926 19.7627L25.3101 17.5797L23.1275 19.7627C22.4686 20.4218 21.3984 20.4218 20.7394 19.7627C20.0804 19.1036 20.0804 18.0332 20.7394 17.3741L22.9219 15.1911L20.7394 13.0081C20.0804 12.349 20.0804 11.2786 20.7394 10.6195Z" fill="#7B7B7B"/>
</svg>
